<?xml version="1.0" encoding="utf-8"?>
<svg xmlns="http://www.w3.org/2000/svg" viewBox="0 0 260 240" width="260" height="240" preserveAspectRatio="xMidYMid meet">
  <defs>
    <linearGradient id="brainGrad" gradientUnits="userSpaceOnUse" x1="38" y1="46" x2="222" y2="210">
      <stop offset="0" stop-color="#00F2FE"/>
      <stop offset="0.5" stop-color="#4A7FFF"/>
      <stop offset="1" stop-color="#7B2FFF"/>
    </linearGradient>
    <filter id="globalGlow" x="-80%" y="-80%" width="260%" height="260%">
      <feGaussianBlur stdDeviation="2.8" result="blur"/>
      <feMerge><feMergeNode in="blur"/><feMergeNode in="SourceGraphic"/></feMerge>
    </filter>
  </defs>

  <!-- contorno externo -->
  <path d="M 159 202 L 127 166 L 89 178 L 57 166 L 38 116 L 76 62 L 127 46 L 152 55 L 190 70 L 222 114 L 209 166 L 177 201"
        fill="none" stroke="url(#brainGrad)" stroke-width="5" stroke-linecap="round" stroke-linejoin="round"/>

  <!-- conexoes primarias -->
  <path d="M 177 201 L 165 152 L 127 114 L 89 130 L 51 140" fill="none" stroke="url(#brainGrad)" stroke-width="4" stroke-linecap="round"/>
  <path d="M 165 152 L 178 101 L 140 62 L 101 75 L 76 62"  fill="none" stroke="url(#brainGrad)" stroke-width="4" stroke-linecap="round"/>
  <path d="M 127 114 L 178 101" fill="none" stroke="url(#brainGrad)" stroke-width="3" stroke-linecap="round"/>
  <path d="M 89 178 L 127 114"  fill="none" stroke="url(#brainGrad)" stroke-width="3" stroke-linecap="round"/>
  <path d="M 127 166 L 165 152" fill="none" stroke="url(#brainGrad)" stroke-width="3" stroke-linecap="round"/>
  <path d="M 209 166 L 178 101" fill="none" stroke="url(#brainGrad)" stroke-width="3" stroke-linecap="round"/>
  <path d="M 222 114 L 178 101" fill="none" stroke="url(#brainGrad)" stroke-width="3" stroke-linecap="round"/>

  <!-- conexoes secundarias tracejadas -->
  <g fill="none" stroke="url(#brainGrad)" stroke-width="2.5" stroke-dasharray="5 3" stroke-linecap="round">
    <line x1="57"  y1="166" x2="89"  y2="130"/>
    <line x1="38"  y1="116" x2="89"  y2="130"/>
    <line x1="127" y1="46"  x2="140" y2="62"/>
    <line x1="190" y1="70"  x2="178" y2="101"/>
    <line x1="127" y1="166" x2="89"  y2="130"/>
    <line x1="209" y1="166" x2="165" y2="152"/>
    <line x1="152" y1="55"  x2="127" y2="114"/>
  </g>

  <!-- nos -->
  <circle cx="38"  cy="116" r="7"   fill="url(#brainGrad)"/>
  <circle cx="76"  cy="62"  r="8"   fill="url(#brainGrad)"/>
  <circle cx="127" cy="46"  r="7"   fill="url(#brainGrad)"/>
  <circle cx="190" cy="70"  r="8.5" fill="url(#brainGrad)"/>
  <circle cx="222" cy="114" r="7.5" fill="url(#brainGrad)"/>
  <circle cx="209" cy="166" r="7"   fill="url(#brainGrad)"/>
  <circle cx="57"  cy="166" r="7"   fill="url(#brainGrad)"/>
  <circle cx="89"  cy="130" r="8"   fill="url(#brainGrad)"/>
  <circle cx="178" cy="101" r="8.5" fill="url(#brainGrad)"/>
  <circle cx="165" cy="152" r="8.5" fill="url(#brainGrad)"/>
  <circle cx="89"  cy="178" r="7"   fill="url(#brainGrad)"/>
  <circle cx="140" cy="62"  r="7"   fill="url(#brainGrad)"/>

  <!-- no central -->
  <circle cx="127" cy="114" r="13"  fill="url(#brainGrad)"/>
  <circle cx="127" cy="114" r="7"   fill="#4A7FFF" opacity="0.75" filter="url(#globalGlow)"/>
</svg>
