<?xml version="1.0" encoding="utf-8"?>
<svg xmlns="http://www.w3.org/2000/svg" viewBox="50 50 300 300" width="400" height="400" preserveAspectRatio="xMidYMid meet">
  <defs>
    <filter id="globalGlow" x="-80%" y="-80%" width="260%" height="260%">
      <feGaussianBlur stdDeviation="2.8" result="blur"/>
      <feMerge>
        <feMergeNode in="blur"/>
        <feMergeNode in="SourceGraphic"/>
      </feMerge>
    </filter>
  </defs>

  <g transform="matrix(0.940956,0,0,0.941408,11.654505,10.84766)">
    <!-- Segmento 1 -->
    <path d="M 295.46,104.54 A 135,135 0 0,1 333.99,183.55"
          fill="none" stroke="#00F2FE" stroke-width="6" stroke-linecap="round" stroke-linejoin="round"
          filter="url(#globalGlow)"/>

    <!-- Segmento 2 -->
    <path d="M 335.0,200.0 A 135,135 0 0,1 306.38,283.11"
          fill="none" stroke="#4FACFE" stroke-width="6" stroke-linecap="round" stroke-linejoin="round"
          filter="url(#globalGlow)"/>

    <!-- Segmento 3 -->
    <path d="M 295.46,295.46 A 135,135 0 0,1 216.45,333.99"
          fill="none" stroke="#2D6BFF" stroke-width="6" stroke-linecap="round" stroke-linejoin="round"
          filter="url(#globalGlow)"/>

    <!-- Segmento 4 (com recorte em chevron — segmento MT) -->
    <path d="M 200.0,335.0 A 135,135 0 0,1 135.58,318.64 L 140.79,300.91 L 127.86,314.11 A 135,135 0 0,1 116.89,306.38"
          fill="none" stroke="#5B4FE8" stroke-width="6" stroke-linecap="round" stroke-linejoin="round"
          filter="url(#globalGlow)"/>

    <!-- Segmento 5 -->
    <path d="M 104.54,295.46 A 135,135 0 0,1 66.01,216.45"
          fill="none" stroke="#7B2FFF" stroke-width="6" stroke-linecap="round" stroke-linejoin="round"
          filter="url(#globalGlow)"/>

    <!-- Segmento 6 -->
    <path d="M 65.0,200.0 A 135,135 0 0,1 93.62,116.89"
          fill="none" stroke="#6A1FDD" stroke-width="6" stroke-linecap="round" stroke-linejoin="round"
          filter="url(#globalGlow)"/>

    <!-- Segmento 7 -->
    <path d="M 200.0,65.0 A 135,135 0 0,1 283.1,93.6"
          fill="none" stroke="#4A1FA8" stroke-width="6" stroke-linecap="round" stroke-linejoin="round"
          filter="url(#globalGlow)"/>
  </g>
</svg>
